<svg width="64" height="64" viewBox="0 0 64 64" fill="none" xmlns="http://www.w3.org/2000/svg">
<circle cx="32" cy="32" r="31" fill="#FFFCFA" stroke="#A53512" stroke-width="2"/>
<path d="M31 41C31 41.5523 31.4477 42 32 42C32.5523 42 33 41.5523 33 41L31 41ZM32.7071 22.2929C32.3166 21.9024 31.6834 21.9024 31.2929 22.2929L24.9289 28.6569C24.5384 29.0474 24.5384 29.6805 24.9289 30.0711C25.3195 30.4616 25.9526 30.4616 26.3431 30.0711L32 24.4142L37.6569 30.0711C38.0474 30.4616 38.6805 30.4616 39.0711 30.0711C39.4616 29.6805 39.4616 29.0474 39.0711 28.6569L32.7071 22.2929ZM33 41L33 23L31 23L31 41L33 41Z" fill="#A53512"/>
</svg>
