<svg width="96" height="96" viewBox="0 0 96 96" fill="none" xmlns="http://www.w3.org/2000/svg">
<g clip-path="url(#clip0_359_574)">
<path d="M80.85 63.43C81.8693 62.9529 82.7942 62.2957 83.58 61.49C84.4731 60.3241 84.9768 58.9068 85.0199 57.4387C85.0629 55.9707 84.6432 54.5263 83.82 53.31C82.7891 51.7252 81.3157 50.4778 79.5826 49.7223C77.8495 48.9669 75.9328 48.7366 74.07 49.06C71.14 49.57 69.62 50.78 68.82 51.88" stroke="#A53512" stroke-width="2" stroke-linecap="round" stroke-linejoin="round"/>
<path d="M64.19 47.72L82.7 66.69" stroke="#A53512" stroke-width="2" stroke-linecap="round" stroke-linejoin="round"/>
<path d="M58.18 51.4399L79.93 70.8499" stroke="#A53512" stroke-width="2" stroke-linecap="round" stroke-linejoin="round"/>
<path d="M75.76 49.1L77.15 52.34" stroke="#A53512" stroke-width="2" stroke-linecap="round" stroke-linejoin="round"/>
<path d="M76.69 59.75C76.7401 59.1069 76.932 58.4828 77.2518 57.9227C77.5717 57.3625 78.0116 56.88 78.54 56.51" stroke="#A53512" stroke-width="2" stroke-linecap="round" stroke-linejoin="round"/>
<path d="M85.5459 49.2948L85.5273 49.3021C84.0399 49.8811 83.3035 51.5562 83.8825 53.0436L84.9019 55.6622C85.4809 57.1496 87.156 57.8859 88.6434 57.3069L88.662 57.2997C90.1494 56.7207 90.8858 55.0455 90.3068 53.5582L89.2874 50.9396C88.7084 49.4522 87.0333 48.7158 85.5459 49.2948Z" stroke="#A53512" stroke-width="2" stroke-linecap="round" stroke-linejoin="round"/>
<path d="M83.17 66.6899C85.24 66.6899 87.79 68.0699 88.26 70.3899" stroke="#A53512" stroke-width="2" stroke-linecap="round" stroke-linejoin="round"/>
<path d="M14.16 69.44L12.23 63L17.46 57.45L42.46 38.45L52.63 50C52.5422 51.1447 52.8052 52.289 53.3841 53.2805C53.9629 54.272 54.83 55.0636 55.87 55.5499C56.8815 56.093 58.0264 56.338 59.1716 56.2566C60.3168 56.1752 61.4154 55.7707 62.34 55.09" stroke="#A53512" stroke-width="2" stroke-linecap="round" stroke-linejoin="round"/>
<path d="M54.94 33.48C57.3528 35.1627 59.6698 36.9789 61.88 38.92C65.1746 42.0874 67.8443 45.846 69.75 50" stroke="#A53512" stroke-width="2" stroke-linecap="round" stroke-linejoin="round"/>
<path d="M6.32001 60L14.71 52.36C14.71 52.36 26.55 36.91 29.86 32.91C33.17 28.91 33.26 26.13 38.4 24.91C39.9326 24.5916 41.5191 24.6442 43.0273 25.0634C44.5355 25.4827 45.9216 26.2563 47.07 27.32" stroke="#A53512" stroke-width="2" stroke-linecap="round" stroke-linejoin="round"/>
<path d="M14.16 69.4401C11.76 71.0001 9 70.0001 7.48 67.5901L5.36 64.2801C4.94678 63.5919 4.81188 62.7719 4.98287 61.9876C5.15385 61.2033 5.61782 60.5138 6.28 60.0601" stroke="#A53512" stroke-width="2" stroke-linecap="round" stroke-linejoin="round"/>
<path d="M17.46 57.43L14.33 53.03" stroke="#A53512" stroke-width="2" stroke-linecap="round" stroke-linejoin="round"/>
<path d="M44.3 26.4301L43.37 31.9801" stroke="#A53512" stroke-width="2" stroke-linecap="round" stroke-linejoin="round"/>
<path d="M50.79 31.9C50.4443 31.9001 50.1126 31.7634 49.8672 31.5199C49.6218 31.2764 49.4826 30.9457 49.48 30.6C49.48 30.2553 49.617 29.9246 49.8608 29.6808C50.1046 29.437 50.4352 29.3 50.78 29.3C51.1248 29.3 51.4554 29.437 51.6992 29.6808C51.943 29.9246 52.08 30.2553 52.08 30.6C52.08 30.9448 51.943 31.2755 51.6992 31.5193C51.4554 31.7631 51.1248 31.9 50.78 31.9H50.79Z" fill="#A53512"/>
<path d="M3.58 71.3101H92.42" stroke="#A53512" stroke-width="2" stroke-linecap="round" stroke-linejoin="round"/>
</g>
<defs>
<clipPath id="clip0_359_574">
<rect width="96" height="96" fill="white"/>
</clipPath>
</defs>
</svg>
