<svg width="96" height="96" viewBox="0 0 96 96" fill="none" xmlns="http://www.w3.org/2000/svg">
<g clip-path="url(#clip0_359_513)">
<path d="M27.22 42.3H53.22C56.15 42.3 57.05 40.82 57.54 38.84" stroke="#A53512" stroke-width="2" stroke-linecap="round" stroke-linejoin="round"/>
<path d="M29.25 47.72H59.3C59.6559 47.7187 60.008 47.6473 60.3363 47.5099C60.6646 47.3725 60.9626 47.1718 61.2133 46.9192C61.4641 46.6667 61.6626 46.3672 61.7975 46.0379C61.9325 45.7086 62.0013 45.3559 62 45C62.0274 44.6582 61.9844 44.3143 61.8737 43.9897C61.763 43.6651 61.587 43.3666 61.3565 43.1126C61.126 42.8587 60.8459 42.6547 60.5334 42.5132C60.221 42.3717 59.8829 42.2958 59.54 42.29" stroke="#A53512" stroke-width="2" stroke-linecap="round" stroke-linejoin="round"/>
<path d="M27.67 39V30C27.67 27.3 23.15 25.49 20.9 25.49C19.519 25.597 18.2073 26.1383 17.1528 27.0365C16.0983 27.9347 15.3553 29.1436 15.03 30.49C14.5347 32.2043 14.5716 34.0285 15.1359 35.7214C15.7002 37.4142 16.7652 38.8957 18.19 39.97C21.35 42.23 24.06 42.23 24.96 41.78C26.183 41.2303 27.1516 40.2366 27.67 39Z" stroke="#A53512" stroke-width="2" stroke-linecap="round" stroke-linejoin="round"/>
<path d="M16.0016 28.029C16.7831 26.6755 16.3193 24.9447 14.9657 24.1632C13.6122 23.3817 11.8814 23.8455 11.0999 25.199L9.73989 27.5546C8.95841 28.9082 9.42218 30.639 10.7757 31.4205C12.1293 32.2019 13.8601 31.7382 14.6416 30.3846L16.0016 28.029Z" stroke="#A53512" stroke-width="2" stroke-linecap="round" stroke-linejoin="round"/>
<path d="M19.54 32.36C19.54 32.36 24.96 33.71 27.22 28.75" stroke="#A53512" stroke-width="2" stroke-linecap="round" stroke-linejoin="round"/>
<path d="M18.64 35.97L17.29 39.13" stroke="#A53512" stroke-width="2" stroke-linecap="round" stroke-linejoin="round"/>
<path d="M46.88 62.64L48.59 58.48L36.3 47.72" stroke="#A53512" stroke-width="2" stroke-linecap="round" stroke-linejoin="round"/>
<path d="M28.33 59.2599C31.252 62.0572 34.4985 64.4945 38 66.5199C40.71 67.8799 45 71.5199 46.22 71.7699C47.44 72.0199 54.06 73.4999 57.55 69.1099C61.04 64.7199 64.5 56.2199 66.13 53.5999C67.76 50.9799 76.62 41.2399 76.62 41.2399C77.9829 41.515 79.3871 41.515 80.75 41.2399C82.83 40.5499 87.25 30.3399 87.32 29.6999C87.39 29.0599 85.76 27.6299 84.64 28.0699C83.52 28.5099 67.76 41.2599 65.54 43.1499C63.32 45.0399 48.54 58.4799 48.54 58.4799" stroke="#A53512" stroke-width="2" stroke-linecap="round" stroke-linejoin="round"/>
<path d="M20.39 41.1899C20.7394 44.5372 21.4881 47.8306 22.62 50.9999" stroke="#A53512" stroke-width="2" stroke-linecap="round" stroke-linejoin="round"/>
<path d="M68.37 41.65L71.27 46.97" stroke="#A53512" stroke-width="2" stroke-linecap="round" stroke-linejoin="round"/>
<path d="M8.36 72.22H87.64" stroke="#A53512" stroke-width="2" stroke-linecap="round" stroke-linejoin="round"/>
<path d="M24.93 56.13C24.7311 56.13 24.5403 56.051 24.3997 55.9103C24.259 55.7697 24.18 55.5789 24.18 55.38C24.18 55.1811 24.259 54.9903 24.3997 54.8497C24.5403 54.709 24.7311 54.63 24.93 54.63C25.1289 54.63 25.3197 54.709 25.4603 54.8497C25.601 54.9903 25.68 55.1811 25.68 55.38C25.68 55.5789 25.601 55.7697 25.4603 55.9103C25.3197 56.051 25.1289 56.13 24.93 56.13Z" fill="#A53512" stroke="#A53512"/>
</g>
<defs>
<clipPath id="clip0_359_513">
<rect width="96" height="96" fill="white"/>
</clipPath>
</defs>
</svg>
