<svg width="96" height="96" viewBox="0 0 96 96" fill="none" xmlns="http://www.w3.org/2000/svg">
<g clip-path="url(#clip0_359_487)">
<path d="M46 35.24L48.58 25.93C49.36 23.13 45.21 19.98 42.89 19.34C41.4396 19.0496 39.9346 19.226 38.5908 19.844C37.2469 20.4621 36.1334 21.4899 35.41 22.78C34.417 24.4129 33.9419 26.3083 34.0472 28.2165C34.1525 30.1247 34.8333 31.9563 36 33.47C38.62 36.7 41.41 37.47 42.47 37.27C43.8577 37.0547 45.1159 36.3312 46 35.24Z" stroke="#A53512" stroke-width="2" stroke-linecap="round" stroke-linejoin="round"/>
<path d="M37.0991 20.5596C38.2923 19.3862 38.3083 17.4678 37.135 16.2747C35.9617 15.0815 34.0433 15.0654 32.8501 16.2388L30.7752 18.2791C29.5821 19.4525 29.566 21.3709 30.7393 22.5641C31.9127 23.7572 33.8311 23.7733 35.0243 22.6L37.0991 20.5596Z" stroke="#A53512" stroke-width="2" stroke-linecap="round" stroke-linejoin="round"/>
<path d="M39.52 26.05C39.52 26.05 44.72 28.99 48.47 24.51" stroke="#A53512" stroke-width="2" stroke-linecap="round" stroke-linejoin="round"/>
<path d="M72 68.85L79.75 63.08C82.08 61.34 80.75 56.31 79.3 54.37C78.3325 53.2567 77.0381 52.4774 75.6015 52.1434C74.1648 51.8094 72.6594 51.9377 71.3 52.51C69.5119 53.1803 67.9694 54.3776 66.8766 55.9436C65.7838 57.5096 65.1922 59.3705 65.18 61.28C65.26 65.44 66.99 67.77 67.96 68.28C69.1874 68.9704 70.6295 69.1738 72 68.85Z" stroke="#A53512" stroke-width="2" stroke-linecap="round" stroke-linejoin="round"/>
<path d="M73.9832 51.8014C75.6453 51.6073 76.8354 50.1026 76.6413 48.4405C76.4472 46.7783 74.9425 45.5882 73.2804 45.7823L70.39 46.1198C68.7279 46.3139 67.5378 47.8186 67.7319 49.4808C67.9259 51.1429 69.4307 52.333 71.0928 52.1389L73.9832 51.8014Z" stroke="#A53512" stroke-width="2" stroke-linecap="round" stroke-linejoin="round"/>
<path d="M72.52 57.61C72.52 57.61 74.82 63.13 80.52 61.89" stroke="#A53512" stroke-width="2" stroke-linecap="round" stroke-linejoin="round"/>
<path d="M52.11 57.4201L34.22 38.5701C33.2541 37.7083 32.0759 37.1197 30.8069 36.8648C29.5378 36.6099 28.2237 36.698 27 37.1201" stroke="#A53512" stroke-width="2" stroke-linecap="round" stroke-linejoin="round"/>
<path d="M31.32 55.4899L34.23 49.6899L41.48 57.4199" stroke="#A53512" stroke-width="2" stroke-linecap="round" stroke-linejoin="round"/>
<path d="M68.54 60.32C68.54 60.32 62.74 62.26 59.36 62.26C55.98 62.26 51.14 61.77 45.36 61.77C39.58 61.77 12 62.26 12 62.26L18.28 49.26C18.28 49.26 22.11 40 27.46 36.64C31.32 34.22 33.26 34.71 35.26 32.39L37.56 29.52" stroke="#A53512" stroke-width="2" stroke-linecap="round" stroke-linejoin="round"/>
<path d="M46.79 73.37H21.66" stroke="#A53512" stroke-width="2" stroke-linecap="round" stroke-linejoin="round"/>
<path d="M84 77.24C84.0434 77.7017 83.9831 78.1672 83.8234 78.6025C83.6637 79.0379 83.4086 79.432 83.0769 79.756C82.7452 80.08 82.3452 80.3258 81.9063 80.4753C81.4674 80.6248 81.0005 80.6742 80.54 80.62H65.7L56.94 73.37" stroke="#A53512" stroke-width="2" stroke-linecap="round" stroke-linejoin="round"/>
<path d="M72.17 80.62H80.87C81.701 80.6173 82.4971 80.2853 83.0838 79.6968C83.6705 79.1082 84 78.311 84 77.48C83.9973 76.648 83.6657 75.8509 83.0774 75.2626C82.4891 74.6743 81.692 74.3426 80.86 74.34" stroke="#A53512" stroke-width="2" stroke-linecap="round" stroke-linejoin="round"/>
<path d="M79.18 71.44C78.6365 72.3948 77.8675 73.2021 76.9402 73.7913C76.0128 74.3805 74.9553 74.7337 73.86 74.82H69.51C69.51 74.82 66.62 72.42 63.71 69.58C64.0601 68.2859 64.7229 67.0978 65.64 66.12" stroke="#A53512" stroke-width="2" stroke-linecap="round" stroke-linejoin="round"/>
<path d="M46.79 73.37C46.79 73.37 48.39 75.47 52.11 75.3C55.83 75.13 56.94 73.37 56.94 73.37" stroke="#A53512" stroke-width="2" stroke-linecap="round" stroke-linejoin="round"/>
<path d="M14.9 74.6699C14.7293 74.6699 14.5602 74.6363 14.4025 74.571C14.2448 74.5057 14.1015 74.4099 13.9808 74.2892C13.8601 74.1685 13.7643 74.0252 13.699 73.8674C13.6336 73.7097 13.6 73.5407 13.6 73.3699C13.5987 73.1997 13.6311 73.0309 13.6953 72.8732C13.7596 72.7155 13.8544 72.5722 13.9743 72.4513C14.0942 72.3305 14.2369 72.2345 14.394 72.1691C14.5512 72.1036 14.7198 72.0699 14.89 72.0699C15.0607 72.0699 15.2298 72.1036 15.3875 72.1689C15.5452 72.2342 15.6885 72.33 15.8093 72.4507C15.93 72.5714 16.0257 72.7147 16.0911 72.8725C16.1564 73.0302 16.19 73.1992 16.19 73.3699C16.19 73.5407 16.1564 73.7097 16.0911 73.8674C16.0257 74.0252 15.93 74.1685 15.8093 74.2892C15.6885 74.4099 15.5452 74.5057 15.3875 74.571C15.2298 74.6363 15.0607 74.6699 14.89 74.6699H14.9Z" fill="#A53512"/>
</g>
<defs>
<clipPath id="clip0_359_487">
<rect width="96" height="96" fill="white"/>
</clipPath>
</defs>
</svg>
