<svg width="48" height="48" viewBox="0 0 48 48" fill="none" xmlns="http://www.w3.org/2000/svg">
<circle cx="24" cy="24" r="23" transform="rotate(-90 24 24)" fill="#FFFCFA" stroke="#A53512" stroke-width="2"/>
<path d="M30.75 25C31.3023 25 31.75 24.5523 31.75 24C31.75 23.4477 31.3023 23 30.75 23L30.75 25ZM16.5429 23.2929C16.1524 23.6834 16.1524 24.3166 16.5429 24.7071L22.9069 31.0711C23.2974 31.4616 23.9305 31.4616 24.3211 31.0711C24.7116 30.6805 24.7116 30.0474 24.3211 29.6569L18.6642 24L24.3211 18.3431C24.7116 17.9526 24.7116 17.3195 24.3211 16.9289C23.9305 16.5384 23.2974 16.5384 22.9069 16.9289L16.5429 23.2929ZM30.75 23L17.25 23L17.25 25L30.75 25L30.75 23Z" fill="#A53512"/>
</svg>
