<svg width="48" height="48" viewBox="0 0 48 48" fill="none" xmlns="http://www.w3.org/2000/svg">
<circle cx="24" cy="24" r="23" transform="rotate(90 24 24)" fill="#FFFCFA" stroke="#A53512" stroke-width="2"/>
<path d="M17.25 23C16.6977 23 16.25 23.4477 16.25 24C16.25 24.5523 16.6977 25 17.25 25L17.25 23ZM31.4571 24.7071C31.8476 24.3166 31.8476 23.6834 31.4571 23.2929L25.0931 16.9289C24.7026 16.5384 24.0695 16.5384 23.6789 16.9289C23.2884 17.3195 23.2884 17.9526 23.6789 18.3431L29.3358 24L23.6789 29.6569C23.2884 30.0474 23.2884 30.6805 23.6789 31.0711C24.0695 31.4616 24.7026 31.4616 25.0931 31.0711L31.4571 24.7071ZM17.25 25L30.75 25L30.75 23L17.25 23L17.25 25Z" fill="#A53512"/>
</svg>
