<svg width="96" height="96" viewBox="0 0 96 96" fill="none" xmlns="http://www.w3.org/2000/svg">
<g clip-path="url(#clip0_359_104)">
<path d="M48.05 17.53C47.0252 17.559 46.0363 17.914 45.2271 18.5434C44.4178 19.1728 43.8304 20.0439 43.55 21.03C42.55 24.53 45.05 31.03 48.05 31.03" stroke="#A53512" stroke-width="2" stroke-linecap="round" stroke-linejoin="round"/>
<path d="M48.05 17.53C49.0748 17.559 50.0637 17.914 50.8729 18.5434C51.6822 19.1728 52.2697 20.0439 52.55 21.03C53.55 24.53 51.05 31.03 48.05 31.03" stroke="#A53512" stroke-width="2" stroke-linecap="round" stroke-linejoin="round"/>
<path d="M44.82 18.53V17C44.82 16.2044 45.1361 15.4413 45.6987 14.8787C46.2613 14.3161 47.0244 14 47.82 14H48.32C49.1157 14 49.8787 14.3161 50.4413 14.8787C51.0039 15.4413 51.32 16.2044 51.32 17V18.5" stroke="#A53512" stroke-width="2" stroke-linecap="round" stroke-linejoin="round"/>
<path d="M22.05 31H20.2C17.2 31 16.5 30 16 28" stroke="#A53512" stroke-width="2" stroke-linecap="round" stroke-linejoin="round"/>
<path d="M69.32 31.03H31.55" stroke="#A53512" stroke-width="2" stroke-linecap="round" stroke-linejoin="round"/>
<path d="M39.5 36.5L14.07 36.53C13.3406 36.53 12.6412 36.2403 12.1254 35.7245C11.6097 35.2088 11.32 34.5093 11.32 33.78C11.2883 33.4305 11.3291 33.0782 11.4398 32.7452C11.5505 32.4121 11.7288 32.1055 11.9635 31.8446C12.1982 31.5836 12.4842 31.3739 12.8036 31.2286C13.1231 31.0833 13.4691 31.0054 13.82 31" stroke="#A53512" stroke-width="2" stroke-linecap="round" stroke-linejoin="round"/>
<path d="M41.05 50C41.55 44.5 39.82 36.5 39.82 36.5H27.55" stroke="#A53512" stroke-width="2" stroke-linecap="round" stroke-linejoin="round"/>
<path d="M66.32 36.53H55.82" stroke="#A53512" stroke-width="2" stroke-linecap="round" stroke-linejoin="round"/>
<path d="M27.06 32.33C26.7152 32.33 26.3846 32.193 26.1408 31.9492C25.897 31.7054 25.76 31.3748 25.76 31.03C25.76 30.6852 25.897 30.3545 26.1408 30.1107C26.3846 29.8669 26.7152 29.73 27.06 29.73C27.4048 29.73 27.7354 29.8669 27.9792 30.1107C28.223 30.3545 28.36 30.6852 28.36 31.03C28.36 31.3748 28.223 31.7054 27.9792 31.9492C27.7354 32.193 27.4048 32.33 27.06 32.33Z" fill="#A53512"/>
<path d="M54.55 52C54.55 52 53.32 41.5 55.82 36.5" stroke="#A53512" stroke-width="2" stroke-linecap="round" stroke-linejoin="round"/>
<path d="M8.5 81.97H87.5" stroke="#A53512" stroke-width="2" stroke-linecap="round" stroke-linejoin="round"/>
<path d="M66.05 31H76.67C79.67 31 80.5 30 81 28" stroke="#A53512" stroke-width="2" stroke-linecap="round" stroke-linejoin="round"/>
<path d="M62.05 36.53H82.8C83.5294 36.53 84.2288 36.2403 84.7445 35.7245C85.2603 35.2088 85.55 34.5093 85.55 33.78C85.5817 33.4305 85.5409 33.0782 85.4302 32.7452C85.3195 32.4121 85.1412 32.1055 84.9065 31.8446C84.6718 31.5836 84.3858 31.3739 84.0664 31.2286C83.7469 31.0833 83.4009 31.0054 83.05 31" stroke="#A53512" stroke-width="2" stroke-linecap="round" stroke-linejoin="round"/>
<path d="M46.05 61.53L26.83 70.04L20.74 74.53L21.48 81.17" stroke="#A53512" stroke-width="2" stroke-linecap="round" stroke-linejoin="round"/>
<path d="M41.05 50C39.05 51.67 35.56 55.27 32.05 58.5C28.54 61.73 25.05 64.5 25.05 64.5L15.51 70.5" stroke="#A53512" stroke-width="2" stroke-linecap="round" stroke-linejoin="round"/>
<path d="M21.48 81.1699C18.87 82.2499 16.37 80.7999 15.29 78.1699L13.81 74.5699C13.2 73.0799 13.81 71.7299 15.51 70.5699" stroke="#A53512" stroke-width="2" stroke-linecap="round" stroke-linejoin="round"/>
<path d="M26.05 70.53L24.32 65.47" stroke="#A53512" stroke-width="2" stroke-linecap="round" stroke-linejoin="round"/>
<path d="M73.05 81.53C72.55 79.03 69.29 77.53 67.05 77.53C67.05 77.53 69.55 63.53 70.05 61.53C70.3238 60.142 70.0641 58.7018 69.3226 57.4969C68.5811 56.292 67.4125 55.4111 66.05 55.03C62.55 54.03 55.55 52.53 52.55 52.03C51.0643 51.7534 49.5602 51.5863 48.05 51.53" stroke="#A53512" stroke-width="2" stroke-linecap="round" stroke-linejoin="round"/>
<path d="M63.05 69.03H68.55" stroke="#A53512" stroke-width="2" stroke-linecap="round" stroke-linejoin="round"/>
<path d="M64.0001 82C63.483 81.7857 62.0784 80.9741 61.7287 80.537C61.3791 80.0999 61.1456 79.5815 61.05 79.03C61.2743 77.5079 61.6085 76.0039 62.05 74.53C62.55 70.03 63.55 62.53 63.55 62.53C63.55 62.53 51.55 62.53 47.55 61.53C43.55 60.53 39.05 55.53 41.05 50.03" stroke="#A53512" stroke-width="2" stroke-linecap="round" stroke-linejoin="round"/>
</g>
<defs>
<clipPath id="clip0_359_104">
<rect width="96" height="96" fill="white"/>
</clipPath>
</defs>
</svg>
