<svg width="96" height="96" viewBox="0 0 96 96" fill="none" xmlns="http://www.w3.org/2000/svg">
<g clip-path="url(#clip0_359_533)">
<path d="M46.49 67.6C46.49 67.6 44.63 67.92 44.63 68.69C44.63 69.46 44.31 70.33 46.23 70.33H53.92C53.92 70.33 54.69 69.56 53.92 68.03L50.08 61.49C50.7812 60.4713 51.0575 59.2192 50.85 58C50.3484 56.1016 49.9611 54.1748 49.69 52.23V31.12C49.69 31.12 48.54 31.12 48.15 31.5C47.4161 32.3993 46.8932 33.4518 46.62 34.58C46.6387 34.8217 46.7193 35.0545 46.8542 35.256C46.9891 35.4574 47.1736 35.6207 47.39 35.73L45.46 46.5C44.8565 47.2857 44.461 48.2109 44.31 49.19C44.3033 50.3198 44.7126 51.4126 45.46 52.26C45.46 52.26 45.29 57.7 45.29 59.18C45.2604 60.6002 45.3912 62.0192 45.68 63.41" stroke="#A53512" stroke-width="1.6" stroke-linecap="round" stroke-linejoin="round"/>
<path d="M46.23 66.49C46.3912 66.9634 46.7062 67.3693 47.1249 67.643C47.5435 67.9166 48.0417 68.0423 48.54 68H51.23L47.77 62.61C46.6478 62.9046 45.599 63.429 44.69 64.15C44.0336 64.7508 43.6238 65.5741 43.54 66.46" stroke="#A53512" stroke-width="1.6" stroke-linecap="round" stroke-linejoin="round"/>
<path d="M42.6635 67.2949L42.5596 67.3549C42.0239 67.6642 41.8404 68.3492 42.1497 68.8849L42.3747 69.2746C42.6839 69.8103 43.3689 69.9938 43.9046 69.6845L44.0085 69.6245C44.5442 69.3152 44.7278 68.6303 44.4185 68.0946L44.1935 67.7049C43.8842 67.1692 43.1992 66.9856 42.6635 67.2949Z" stroke="#A53512" stroke-width="1.6" stroke-linecap="round" stroke-linejoin="round"/>
<path d="M49.69 38.8101H47" stroke="#A53512" stroke-width="1.6" stroke-linecap="round" stroke-linejoin="round"/>
<path d="M49.69 52.26H45.46" stroke="#A53512" stroke-width="1.6" stroke-linecap="round" stroke-linejoin="round"/>
<path d="M35.7 70.33H60.3" stroke="#A53512" stroke-width="1.6" stroke-linecap="round" stroke-linejoin="round"/>
<path d="M26.69 43.63V19.74C26.69 18.4139 27.2168 17.1421 28.1545 16.2045C29.0921 15.2668 30.3639 14.74 31.69 14.74H64.33C65.6561 14.74 66.9279 15.2668 67.8655 16.2045C68.8032 17.1421 69.33 18.4139 69.33 19.74V76.26C69.33 77.5861 68.8032 78.8578 67.8655 79.7955C66.9279 80.7332 65.6561 81.26 64.33 81.26H31.67C30.3439 81.26 29.0721 80.7332 28.1345 79.7955C27.1968 78.8578 26.67 77.5861 26.67 76.26V53.26" stroke="#A53512" stroke-width="2" stroke-linecap="round" stroke-linejoin="round"/>
<path d="M55.25 19H62.94C63.4996 19 64.0363 19.2223 64.432 19.618C64.8277 20.0137 65.05 20.5504 65.05 21.11V74.88C65.0513 75.1579 64.9977 75.4334 64.8923 75.6905C64.7868 75.9477 64.6316 76.1815 64.4355 76.3785C64.2395 76.5755 64.0064 76.7318 63.7498 76.8384C63.4931 76.9451 63.2179 77 62.94 77H33.06C32.5074 76.9869 31.9819 76.7575 31.5967 76.361C31.2115 75.9646 30.9972 75.4328 31 74.88V21.12C30.9972 20.5672 31.2115 20.0354 31.5967 19.639C31.9819 19.2425 32.5074 19.0131 33.06 19H40.75" stroke="#A53512" stroke-width="2" stroke-linecap="round" stroke-linejoin="round"/>
<path d="M55.25 19V19.64C55.25 20.0038 55.1783 20.364 55.0391 20.7C54.8999 21.0361 54.6959 21.3415 54.4387 21.5987C54.1815 21.8559 53.8761 22.0599 53.54 22.1991C53.204 22.3384 52.8438 22.41 52.48 22.41H43.48C43.1162 22.41 42.756 22.3384 42.42 22.1991C42.0839 22.0599 41.7785 21.8559 41.5213 21.5987C41.2641 21.3415 41.0601 21.0361 40.9208 20.7C40.7816 20.364 40.71 20.0038 40.71 19.64V19" stroke="#A53512" stroke-width="2" stroke-linecap="round" stroke-linejoin="round"/>
<path d="M26.7 49.73C26.3543 49.73 26.0226 49.5934 25.7772 49.3499C25.5318 49.1063 25.3926 48.7757 25.39 48.43C25.39 48.0852 25.527 47.7546 25.7708 47.5108C26.0146 47.267 26.3452 47.13 26.69 47.13C27.0348 47.13 27.3654 47.267 27.6092 47.5108C27.853 47.7546 27.99 48.0852 27.99 48.43C27.99 48.7748 27.853 49.1054 27.6092 49.3492C27.3654 49.593 27.0348 49.73 26.69 49.73H26.7Z" fill="#A53512"/>
</g>
<defs>
<clipPath id="clip0_359_533">
<rect width="96" height="96" fill="white"/>
</clipPath>
</defs>
</svg>
