<svg width="32" height="32" viewBox="0 0 32 32" fill="none" xmlns="http://www.w3.org/2000/svg">
<rect x="0.8" y="0.8" width="30.4" height="30.4" stroke="#A53512" stroke-width="1.6"/>
<path d="M11.666 22V20.776L16.796 15.826C17.252 15.394 17.588 15.016 17.804 14.692C18.032 14.356 18.182 14.05 18.254 13.774C18.338 13.486 18.38 13.21 18.38 12.946C18.38 12.298 18.152 11.788 17.696 11.416C17.24 11.044 16.574 10.858 15.698 10.858C15.026 10.858 14.42 10.972 13.88 11.2C13.34 11.416 12.872 11.758 12.476 12.226L11.252 11.164C11.732 10.552 12.374 10.084 13.178 9.76C13.994 9.424 14.888 9.256 15.86 9.256C16.736 9.256 17.498 9.4 18.146 9.688C18.794 9.964 19.292 10.366 19.64 10.894C20 11.422 20.18 12.046 20.18 12.766C20.18 13.174 20.126 13.576 20.018 13.972C19.91 14.368 19.706 14.788 19.406 15.232C19.106 15.676 18.674 16.174 18.11 16.726L13.538 21.136L13.106 20.434H20.72V22H11.666Z" fill="#A53512"/>
</svg>
