<svg width="32" height="32" viewBox="0 0 32 32" fill="none" xmlns="http://www.w3.org/2000/svg">
<rect x="0.8" y="0.8" width="30.4" height="30.4" stroke="#A53512" stroke-width="1.6"/>
<path d="M15.716 22.144C14.828 22.144 13.964 22.006 13.124 21.73C12.296 21.454 11.618 21.082 11.09 20.614L11.918 19.192C12.338 19.588 12.884 19.912 13.556 20.164C14.228 20.416 14.948 20.542 15.716 20.542C16.652 20.542 17.378 20.344 17.894 19.948C18.422 19.54 18.686 18.994 18.686 18.31C18.686 17.65 18.434 17.122 17.93 16.726C17.438 16.318 16.652 16.114 15.572 16.114H14.564V14.854L18.308 10.246L18.56 10.966H11.666V9.4H19.982V10.624L16.256 15.214L15.32 14.656H15.914C17.438 14.656 18.578 14.998 19.334 15.682C20.102 16.366 20.486 17.236 20.486 18.292C20.486 19 20.312 19.648 19.964 20.236C19.616 20.824 19.088 21.292 18.38 21.64C17.684 21.976 16.796 22.144 15.716 22.144Z" fill="#A53512"/>
</svg>
