<svg width="32" height="32" viewBox="0 0 32 32" fill="none" xmlns="http://www.w3.org/2000/svg">
<rect x="0.8" y="0.8" width="30.4" height="30.4" stroke="#A53512" stroke-width="1.6"/>
<path d="M15.932 22.144C15.044 22.144 14.18 22.006 13.34 21.73C12.512 21.454 11.834 21.082 11.306 20.614L12.134 19.192C12.554 19.588 13.1 19.912 13.772 20.164C14.444 20.416 15.158 20.542 15.914 20.542C16.874 20.542 17.612 20.338 18.128 19.93C18.644 19.522 18.902 18.976 18.902 18.292C18.902 17.824 18.788 17.416 18.56 17.068C18.332 16.72 17.936 16.456 17.372 16.276C16.82 16.084 16.058 15.988 15.086 15.988H12.224L12.89 9.4H20V10.966H13.556L14.492 10.084L13.97 15.286L13.034 14.422H15.464C16.724 14.422 17.738 14.584 18.506 14.908C19.274 15.232 19.832 15.682 20.18 16.258C20.528 16.822 20.702 17.476 20.702 18.22C20.702 18.94 20.528 19.6 20.18 20.2C19.832 20.788 19.304 21.262 18.596 21.622C17.9 21.97 17.012 22.144 15.932 22.144Z" fill="#A53512"/>
</svg>
