<svg width="96" height="96" viewBox="0 0 96 96" fill="none" xmlns="http://www.w3.org/2000/svg">
<g clip-path="url(#clip0_133_2496)">
<path d="M8.5 84.55H87.5" stroke="#A53512" stroke-width="2" stroke-linecap="round" stroke-linejoin="round"/>
<path d="M47.21 63.1299L24.97 72.9799L18.88 77.4699L19.62 84.1099" stroke="#A53512" stroke-width="2" stroke-linecap="round" stroke-linejoin="round"/>
<path d="M45.9 49.49C43.9 51.15 34.76 57.89 30.69 61.33C27.07 64.4 23.69 67.33 23.69 67.33L14.15 73.33" stroke="#A53512" stroke-width="2" stroke-linecap="round" stroke-linejoin="round"/>
<path d="M19.62 84.1099C17 85.1899 15 83.5999 13.94 80.9999L12.45 77.3999C11.84 75.9099 12.45 74.5599 14.16 73.3999" stroke="#A53512" stroke-width="2" stroke-linecap="round" stroke-linejoin="round"/>
<path d="M24.82 72.46L23.49 68.55" stroke="#A53512" stroke-width="2" stroke-linecap="round" stroke-linejoin="round"/>
<path d="M75 83.5501C74.5 81.0501 71.25 79.5501 69 79.5501C69 79.5501 71.5 65.55 72 63.55C72.2738 62.162 72.0141 60.7218 71.2726 59.5169C70.5311 58.312 69.3625 57.4311 68 57.05C64.5 56.05 57.5 54.55 54.5 54.05C53.0143 53.7735 51.5102 53.6063 50 53.55" stroke="#A53512" stroke-width="2" stroke-linecap="round" stroke-linejoin="round"/>
<path d="M64.87 71.6101H70.19" stroke="#A53512" stroke-width="2" stroke-linecap="round" stroke-linejoin="round"/>
<path d="M65 84.1099C64.4829 83.8956 64.0284 83.554 63.6787 83.1169C63.3291 82.6798 63.0956 82.1614 63 81.6099C63.2243 80.0877 63.5585 78.5838 64 77.1099C64.5 72.6099 65.5 65.1099 65.5 65.1099C65.5 65.1099 53.5 65.1099 49.5 64.1099C45.5 63.1099 40.5 57.9099 42.5 52.4099" stroke="#A53512" stroke-width="2" stroke-linecap="round" stroke-linejoin="round"/>
<path d="M60.2 35L78.09 17.17C80.25 15.02 79.82 13.27 78.74 11.45" stroke="#A53512" stroke-width="2" stroke-linecap="round" stroke-linejoin="round"/>
<path d="M64.06 39.1101L86.53 16.7301C86.7936 16.468 87.0029 16.1564 87.1457 15.8131C87.2884 15.4699 87.3619 15.1018 87.3619 14.7301C87.3619 14.3583 87.2884 13.9902 87.1457 13.647C87.0029 13.3038 86.7936 12.9921 86.53 12.7301C86.2991 12.4568 86.0146 12.2339 85.694 12.0752C85.3734 11.9166 85.0235 11.8255 84.6663 11.8077C84.309 11.7899 83.9518 11.8457 83.617 11.9717C83.2822 12.0977 82.9769 12.2911 82.72 12.5401" stroke="#A53512" stroke-width="2" stroke-linecap="round" stroke-linejoin="round"/>
<path d="M53.78 53.55C53.78 53.55 62.27 49.94 65.5 45.49C66.4388 44.2546 67.0271 42.7889 67.2031 41.2473C67.3791 39.7057 67.1362 38.1452 66.5 36.73" stroke="#A53512" stroke-width="2" stroke-linecap="round" stroke-linejoin="round"/>
<path d="M67.23 27.7V18.88C67.23 16.23 62.82 14.47 60.62 14.47C59.2745 14.5714 57.9954 15.0948 56.9648 15.9656C55.9341 16.8365 55.2046 18.0103 54.88 19.32C54.399 20.9977 54.4398 22.7821 54.9971 24.4361C55.5544 26.0901 56.6017 27.5354 58 28.58C61.09 30.79 63.73 30.79 64.62 30.35C65.7892 29.8218 66.7197 28.8771 67.23 27.7Z" stroke="#A53512" stroke-width="2" stroke-linecap="round" stroke-linejoin="round"/>
<path d="M55.8204 16.9517C56.5853 15.6269 56.1333 13.9339 54.8108 13.1703C53.4884 12.4068 51.7962 12.8619 51.0313 14.1867L49.7063 16.4817C48.9414 17.8066 49.3934 19.4996 50.7158 20.2631C52.0383 21.0266 53.7305 20.5716 54.4954 19.2467L55.8204 16.9517Z" stroke="#A53512" stroke-width="2" stroke-linecap="round" stroke-linejoin="round"/>
<path d="M59.29 21.1899C59.29 21.1899 64.59 22.5099 66.79 17.6599" stroke="#A53512" stroke-width="2" stroke-linecap="round" stroke-linejoin="round"/>
<path d="M58.77 24.46C58.56 24.46 57.15 28.27 56.51 31.51C55.87 34.75 51.79 42.38 51.79 42.38" stroke="#A53512" stroke-width="2" stroke-linecap="round" stroke-linejoin="round"/>
<path d="M49.25 47.2799C48.9052 47.2799 48.5746 47.143 48.3308 46.8992C48.087 46.6554 47.95 46.3247 47.95 45.9799C47.95 45.6351 48.087 45.3045 48.3308 45.0607C48.5746 44.8169 48.9052 44.6799 49.25 44.6799C49.5948 44.6799 49.9254 44.8169 50.1692 45.0607C50.413 45.3045 50.55 45.6351 50.55 45.9799C50.55 46.3247 50.413 46.6554 50.1692 46.8992C49.9254 47.143 49.5948 47.2799 49.25 47.2799Z" fill="#A53512"/>
</g>
<defs>
<clipPath id="clip0_133_2496">
<rect width="96" height="96" fill="white"/>
</clipPath>
</defs>
</svg>
