<svg width="96" height="96" viewBox="0 0 96 96" fill="none" xmlns="http://www.w3.org/2000/svg">
<g clip-path="url(#clip0_133_2516)">
<path d="M51.31 11C50.2592 11.0381 49.2471 11.4064 48.4177 12.0527C47.5883 12.699 46.9837 13.5904 46.69 14.6C45.69 18.19 48.23 24.86 51.31 24.86" stroke="#A53512" stroke-width="2" stroke-linecap="round" stroke-linejoin="round"/>
<path d="M51.31 11C52.3608 11.0381 53.3729 11.4064 54.2023 12.0527C55.0317 12.699 55.6363 13.5904 55.93 14.6C56.93 18.19 54.39 24.86 51.31 24.86" stroke="#A53512" stroke-width="2" stroke-linecap="round" stroke-linejoin="round"/>
<path d="M48 12.06V10.52C48 9.70309 48.3245 8.91968 48.9021 8.34207C49.4797 7.76446 50.2631 7.43996 51.08 7.43996H51.59C51.9948 7.43864 52.3959 7.5174 52.7702 7.67172C53.1445 7.82603 53.4846 8.05286 53.7708 8.33912C54.0571 8.62539 54.2839 8.96545 54.4382 9.33973C54.5926 9.71401 54.6713 10.1151 54.67 10.52V12.06" stroke="#A53512" stroke-width="2" stroke-linecap="round" stroke-linejoin="round"/>
<path d="M73.16 24.89H22.72C19.72 24.89 18.72 23.35 18.22 21.3" stroke="#A53512" stroke-width="2" stroke-linecap="round" stroke-linejoin="round"/>
<path d="M31.06 30.5399H16.42C15.6721 30.5399 14.9548 30.2428 14.426 29.7139C13.8971 29.1851 13.6 28.4678 13.6 27.7199C13.5712 27.3628 13.616 27.0035 13.7316 26.6644C13.8472 26.3253 14.0311 26.0134 14.272 25.7482C14.5129 25.4829 14.8056 25.2699 15.132 25.1223C15.4585 24.9747 15.8118 24.8956 16.17 24.8899" stroke="#A53512" stroke-width="2" stroke-linecap="round" stroke-linejoin="round"/>
<path d="M40.81 30.54H42.87C42.87 30.54 44.92 40.81 44.41 44.92C43.9 49.03 41.84 49.54 42.35 57.24C42.86 64.94 45.43 84.45 45.43 84.45" stroke="#A53512" stroke-width="2" stroke-linecap="round" stroke-linejoin="round"/>
<path d="M70.08 30.54H59.3" stroke="#A53512" stroke-width="2" stroke-linecap="round" stroke-linejoin="round"/>
<path d="M49.28 44.41H55.19L73.67 27.98L75.73 20.27" stroke="#A53512" stroke-width="2" stroke-linecap="round" stroke-linejoin="round"/>
<path d="M78.81 30.54C78.81 30.54 64.94 47.54 61.35 51.59C57.76 55.64 52.11 55.7 52.11 55.7L51.41 77.78L51.08 88.05" stroke="#A53512" stroke-width="2" stroke-linecap="round" stroke-linejoin="round"/>
<path d="M58.27 41.33C57.4039 37.7215 57.7555 33.9279 59.27 30.54" stroke="#A53512" stroke-width="2" stroke-linecap="round" stroke-linejoin="round"/>
<path d="M79.86 25.4099H81.57C81.6549 25.4099 81.7363 25.4436 81.7963 25.5036C81.8563 25.5636 81.89 25.645 81.89 25.7299V30.2199C81.89 30.3048 81.8563 30.3862 81.7963 30.4462C81.7363 30.5062 81.6549 30.5399 81.57 30.5399H79.62C78.9968 30.5399 78.399 30.2923 77.9583 29.8516C77.5176 29.4109 77.27 28.8132 77.27 28.1899V27.9999C77.27 27.313 77.5429 26.6542 78.0286 26.1685C78.5143 25.6828 79.1731 25.4099 79.86 25.4099Z" stroke="#A53512" stroke-width="2" stroke-linecap="round" stroke-linejoin="round"/>
<path d="M75.73 20.2701C76.0291 20.1545 76.35 20.1063 76.6699 20.129C76.9898 20.1517 77.3007 20.2446 77.5805 20.4012C77.8604 20.5579 78.1022 20.7743 78.2888 21.0351C78.4754 21.2959 78.6021 21.5947 78.66 21.9101L79.83 24.9101" stroke="#A53512" stroke-width="2" stroke-linecap="round" stroke-linejoin="round"/>
<path d="M67 35.1599L71.11 39.2699" stroke="#A53512" stroke-width="2" stroke-linecap="round" stroke-linejoin="round"/>
<path d="M40.3 88.05C40.3 85.75 43.13 84.45 45.43 84.45" stroke="#A53512" stroke-width="2" stroke-linecap="round" stroke-linejoin="round"/>
<path d="M45.43 77.78H51.41" stroke="#A53512" stroke-width="2" stroke-linecap="round" stroke-linejoin="round"/>
<path d="M7.44 88.5601H88.56" stroke="#A53512" stroke-width="2" stroke-linecap="round" stroke-linejoin="round"/>
<path d="M36.19 31.84C35.8452 31.84 35.5146 31.703 35.2708 31.4592C35.027 31.2154 34.89 30.8848 34.89 30.54C34.89 30.1952 35.027 29.8645 35.2708 29.6208C35.5146 29.377 35.8452 29.24 36.19 29.24C36.5348 29.24 36.8655 29.377 37.1093 29.6208C37.3531 29.8645 37.49 30.1952 37.49 30.54C37.49 30.8848 37.3531 31.2154 37.1093 31.4592C36.8655 31.703 36.5348 31.84 36.19 31.84Z" fill="#A53512"/>
</g>
<defs>
<clipPath id="clip0_133_2516">
<rect width="96" height="96" fill="white"/>
</clipPath>
</defs>
</svg>
