<svg width="96" height="96" viewBox="0 0 96 96" fill="none" xmlns="http://www.w3.org/2000/svg">
<g clip-path="url(#clip0_133_2476)">
<path d="M69.14 51.52V63.21C69.14 64.5971 69.691 65.9274 70.6718 66.9082C71.6526 67.889 72.9829 68.44 74.37 68.44H88.8C89.2487 68.4968 89.7044 68.4513 90.133 68.3071C90.5617 68.1629 90.9522 67.9237 91.2753 67.6073C91.5985 67.2909 91.8459 66.9055 91.9991 66.48C92.1523 66.0544 92.2073 65.5998 92.16 65.15" stroke="#A53512" stroke-width="2" stroke-linecap="round" stroke-linejoin="round"/>
<path d="M80.65 68.4399H89.11C89.9119 68.4267 90.6764 68.0982 91.2379 67.5255C91.7994 66.9528 92.1127 66.1819 92.11 65.3799C92.11 64.5842 91.7939 63.8212 91.2313 63.2586C90.6687 62.696 89.9056 62.3799 89.11 62.3799" stroke="#A53512" stroke-width="2" stroke-linecap="round" stroke-linejoin="round"/>
<path d="M71.81 46.3601C72.7223 46.3601 73.5973 46.7225 74.2424 47.3677C74.8876 48.0128 75.25 48.8878 75.25 49.8001V63.2701H82.25C83.66 63.2701 86.01 61.8601 87.42 59.5101" stroke="#A53512" stroke-width="2" stroke-linecap="round" stroke-linejoin="round"/>
<path d="M90.28 43.42V34C90.28 31.18 85.59 29.3 83.28 29.3C81.8472 29.4095 80.4853 29.9681 79.3884 30.8963C78.2914 31.8245 77.5151 33.0751 77.17 34.4701C76.6548 36.2533 76.6935 38.1511 77.281 39.9119C77.8685 41.6727 78.9772 43.2135 80.46 44.3301C83.75 46.6801 86.57 46.68 87.46 46.21C88.716 45.6657 89.7222 44.6701 90.28 43.42Z" stroke="#A53512" stroke-width="2" stroke-linecap="round" stroke-linejoin="round"/>
<path d="M78.1428 31.9829C78.9574 30.572 78.4759 28.7689 77.0673 27.9557C75.6587 27.1424 73.8565 27.627 73.0419 29.0379L71.6319 31.4801C70.8173 32.8911 71.2987 34.6942 72.7073 35.5074C74.1159 36.3206 75.9181 35.8361 76.7328 34.4251L78.1428 31.9829Z" stroke="#A53512" stroke-width="2" stroke-linecap="round" stroke-linejoin="round"/>
<path d="M81.83 36.49C81.83 36.49 87.47 37.9 89.83 32.73" stroke="#A53512" stroke-width="2" stroke-linecap="round" stroke-linejoin="round"/>
<path d="M80.89 40.25L79.48 43.54" stroke="#A53512" stroke-width="2" stroke-linecap="round" stroke-linejoin="round"/>
<path d="M80 44.48C80 44.48 78.12 47.77 77.18 49.64L75.25 53.4" stroke="#A53512" stroke-width="2" stroke-linecap="round" stroke-linejoin="round"/>
<path d="M69.14 54.8101L17.93 59.9801L10.41 61.8601L8.53 68.4401" stroke="#A53512" stroke-width="2" stroke-linecap="round" stroke-linejoin="round"/>
<path d="M50.82 51.52V46.36C50.82 46.36 47.53 43.54 44.24 43.54C40.95 43.54 37.19 46.83 34.37 47.77C31.55 48.71 17.93 53.87 17.93 53.87L6.66 56.22" stroke="#A53512" stroke-width="2" stroke-linecap="round" stroke-linejoin="round"/>
<path d="M56.93 44.8301L50.82 46.3601" stroke="#A53512" stroke-width="2" stroke-linecap="round" stroke-linejoin="round"/>
<path d="M77.13 39.78L67.73 42.13" stroke="#A53512" stroke-width="2" stroke-linecap="round" stroke-linejoin="round"/>
<path d="M8.53 68.44C5.64 68.44 3.84 66.09 3.84 63.2V59.2C3.81974 58.8158 3.87746 58.4315 4.0097 58.0702C4.14194 57.7089 4.34596 57.3782 4.60946 57.0978C4.87295 56.8175 5.19047 56.5935 5.54288 56.4391C5.8953 56.2848 6.2753 56.2035 6.66 56.2" stroke="#A53512" stroke-width="2" stroke-linecap="round" stroke-linejoin="round"/>
<path d="M17.93 59.9801V53.8701" stroke="#A53512" stroke-width="2" stroke-linecap="round" stroke-linejoin="round"/>
<path d="M2.89999 68.4399H93.1" stroke="#A53512" stroke-width="2" stroke-linecap="round" stroke-linejoin="round"/>
<path d="M62.1 44.84C61.7543 44.84 61.4226 44.7034 61.1772 44.4598C60.9318 44.2163 60.7926 43.8857 60.79 43.54C60.79 43.1952 60.927 42.8645 61.1708 42.6208C61.4146 42.377 61.7452 42.24 62.09 42.24C62.4348 42.24 62.7654 42.377 63.0092 42.6208C63.253 42.8645 63.39 43.1952 63.39 43.54C63.39 43.8848 63.253 44.2154 63.0092 44.4592C62.7654 44.703 62.4348 44.84 62.09 44.84H62.1Z" fill="#A53512"/>
</g>
<defs>
<clipPath id="clip0_133_2476">
<rect width="96" height="96" fill="white"/>
</clipPath>
</defs>
</svg>
